<svg width="108" height="108" viewBox="0 0 108 108" fill="none" xmlns="http://www.w3.org/2000/svg">
<rect width="108" height="108" rx="17" fill="black"/>
<path fill-rule="evenodd" clip-rule="evenodd" d="M32.6245 26.2232L28.7797 30.0749C28.4792 30.376 28.4832 30.8682 28.7886 31.1742L70.23 72.6893C70.5355 72.9953 71.0268 72.9993 71.3273 72.6982L75.1721 68.8466C75.4727 68.5455 75.4687 68.0533 75.1632 67.7472L60.9734 53.5321L64.1336 53.573C64.1914 53.5966 64.2491 53.6203 64.3068 53.6442C67.4992 54.9676 70.4186 56.869 72.9244 59.246C73.3794 59.679 74.1064 59.6839 74.5582 59.2313L78.3892 55.3935L78.1188 55.1192L78.3909 55.3918L78.3901 55.3926C78.8438 54.9428 78.8489 54.2037 78.3809 53.7574L78.3801 53.7566C75.156 50.6672 71.391 48.2008 67.2641 46.4902C62.8998 44.6782 58.2205 43.747 53.4984 43.747C52.7557 43.747 52.014 43.77 51.2744 43.8159L46.524 39.0571C48.8221 38.6619 51.1545 38.4618 53.4962 38.4618C58.91 38.4618 64.2782 39.5313 69.2802 41.609C74.0493 43.5872 78.4029 46.4438 82.1161 50.0297C82.5689 50.4712 83.2982 50.4735 83.7491 50.0218L87.5422 46.2219H87.5499L87.6627 46.109C88.1124 45.6584 88.1149 44.922 87.6553 44.4732L87.6544 44.4724C83.2135 40.1634 78.0007 36.7326 72.2838 34.3586C66.3302 31.8874 59.9461 30.6169 53.5 30.6169C48.9223 30.6169 44.3759 31.2576 39.9927 32.5141L33.7219 26.2322C33.4164 25.9261 32.9251 25.9221 32.6245 26.2232ZM78.3791 53.7573L78.3809 53.7574L78.1152 54.0357L78.3791 53.7573ZM78.3791 53.7573L78.3801 53.7566L77.8934 53.7503L77.8931 53.7511L78.3791 53.7573ZM72.9244 59.246L73.1893 58.9665L72.9247 59.2464L72.9244 59.246ZM64.1324 53.5726L65.9006 53.5954L65.9004 53.5959L64.1336 53.573L64.1324 53.5726ZM64.1324 53.5726L60.973 53.5317L59.6035 52.1598C61.1463 52.5018 62.6613 52.9737 64.1324 53.5726ZM67.7177 40.1766C68.3056 40.3886 68.8893 40.614 69.4681 40.8526L71.9408 35.0508C71.2782 34.7766 70.6101 34.5175 69.9372 34.2736C70.3817 34.8743 70.5186 35.6886 70.2276 36.4418L69.3464 38.7278C69.0591 39.4692 68.4376 39.9915 67.7177 40.1766ZM71.0459 41.5402C70.758 41.4076 70.4684 41.2783 70.1773 41.1521L72.6497 35.3509C72.9409 35.4769 73.2306 35.6057 73.519 35.7373L71.0459 41.5402ZM71.7427 41.8687C72.0278 42.0064 72.3113 42.1473 72.593 42.2913L75.0703 36.4787C74.7874 36.3373 74.503 36.1986 74.2172 36.0626L71.7427 41.8687ZM74.1124 43.1076C73.8359 42.9516 73.5575 42.7987 73.2774 42.649L75.7577 36.8293C76.0392 36.9757 76.3191 37.1249 76.5975 37.2767L74.1124 43.1076ZM74.7843 43.4947C75.06 43.657 75.3338 43.8225 75.6057 43.991L78.1024 38.1327C77.8279 37.97 77.5518 37.81 77.2741 37.6527L74.7843 43.4947ZM77.0701 44.9415C76.8037 44.7606 76.5352 44.5828 76.2648 44.4081L78.768 38.5346C79.0412 38.7025 79.3127 38.8731 79.5825 39.0465L77.0701 44.9415ZM77.7162 45.3891C77.9816 45.5766 78.2448 45.7673 78.5059 45.961L81.0263 40.0472L81.1602 40.1045C80.8548 39.8909 80.5471 39.6809 80.2369 39.4745L77.7162 45.3891ZM79.9073 47.0478C79.6534 46.8421 79.3971 46.6395 79.1386 46.4399L81.6812 40.4741C81.944 40.6631 82.2049 40.8548 82.4639 41.0491L79.9073 47.0478ZM80.5263 47.5589C80.7805 47.7729 81.0323 47.9901 81.2815 48.2102L83.8673 42.143C83.612 41.9363 83.3547 41.7324 83.0953 41.531L80.5263 47.5589ZM82.6199 49.4453C82.3779 49.2121 82.1334 48.982 81.8862 48.7549L84.4868 42.653C84.74 42.865 84.9912 43.0797 85.2402 43.2971L82.6199 49.4453ZM83.621 49.0597L85.8349 46.8419L86.7569 44.6785C86.4572 44.3936 86.1539 44.1128 85.8473 43.836L83.621 49.0597ZM77.7096 54.1817C77.7347 54.2055 77.7598 54.2293 77.7848 54.2532L77.8489 54.3145L77.8499 54.3154C77.9964 54.4548 78.0016 54.6934 77.8484 54.8449L77.8467 54.8466L77.1129 55.5817L77.7096 54.1817ZM75.6526 57.0446L77.0609 53.7403L76.0264 53.7269L73.875 58.775C73.9262 58.7561 73.9738 58.7264 74.014 58.6862L75.6526 57.0446ZM77.1096 53.6259L77.0612 53.7396L76.0267 53.7262L76.3531 52.9605C76.6083 53.1786 76.8605 53.4004 77.1096 53.6259ZM75.1942 53.7161L73.1837 58.4334C72.9393 58.2074 72.6911 57.9856 72.4394 57.7683L74.172 53.7029L75.1942 53.7161ZM75.7359 52.445L75.1945 53.7154L74.1723 53.7022L74.9678 51.8357C75.2266 52.0352 75.4826 52.2383 75.7359 52.445ZM71.823 57.251L73.3398 53.6921L72.3107 53.6788L71.0485 56.6404C71.31 56.8395 71.5682 57.043 71.823 57.251ZM73.34 53.6915L74.3343 51.3586C74.0725 51.166 73.8081 50.977 73.5412 50.7918L72.311 53.6782L73.34 53.6915ZM71.4785 53.6681L70.4123 56.1697C70.1499 55.981 69.8843 55.7967 69.6158 55.6169L70.452 53.6548L71.4785 53.6681ZM72.8918 50.3518L71.4787 53.6674L70.4523 53.6542L72.0814 49.8316C72.3539 50.0013 72.6241 50.1747 72.8918 50.3518ZM68.9605 55.1908L69.6198 53.644L68.5976 53.6308L68.1444 54.6943C68.4192 54.8553 68.6913 55.0209 68.9605 55.1908ZM69.62 53.6434L71.4167 49.4277C71.1437 49.266 70.8684 49.1079 70.591 48.9535L68.5978 53.6302L69.62 53.6434ZM67.7653 53.62L67.4706 54.3115C67.1908 54.1574 66.9083 54.0079 66.6233 53.8631L66.7326 53.6067L67.7653 53.62ZM69.9112 48.585L67.7656 53.6195L66.7328 53.6061L69.0584 48.1496C69.3447 48.2909 69.629 48.436 69.9112 48.585ZM65.9314 53.523C65.6471 53.388 65.3604 53.2575 65.0714 53.1317L67.5021 47.4284C67.7912 47.5538 68.0784 47.6831 68.3636 47.8162L65.9314 53.523ZM66.7926 47.1296L64.3616 52.8337C63.8231 52.6159 63.2789 52.4146 62.7297 52.23C63.3804 52.0302 63.9316 51.5361 64.184 50.8517L65.0383 48.5387C65.3236 47.766 65.1592 46.943 64.6863 46.3463C65.3957 46.5845 66.0982 46.8457 66.7926 47.1296Z" fill="white"/>
<path d="M33.4321 43.6814L27.7102 37.9493C24.7012 39.8113 21.896 41.9977 19.3456 44.4724L19.3447 44.4732C18.8851 44.922 18.8876 45.6584 19.3373 46.109L23.2432 50.0218C23.694 50.4734 24.4231 50.4712 24.8759 50.03C27.446 47.5479 30.323 45.4153 33.4321 43.6814Z" fill="white"/>
<path d="M37.3336 47.5898L43.1801 53.4467C43.0162 53.511 42.8528 53.5769 42.6899 53.6443C39.4975 54.9677 36.5779 56.8693 34.0721 59.2464C33.6171 59.679 32.8903 59.6837 32.4387 59.2313L28.6059 55.3918C28.1572 54.9422 28.152 54.2044 28.6151 53.7581L28.6157 53.7575C31.2011 51.2771 34.1399 49.1983 37.3336 47.5898Z" fill="white"/>
<path d="M47.6303 57.9049C46.682 58.1602 45.7495 58.4773 44.8389 58.8547C42.3338 59.8917 40.0364 61.3758 38.0547 63.2301C37.7468 63.5192 37.7468 64.0088 38.047 64.3095L41.6758 67.9447C41.9759 68.2493 42.4608 68.2454 42.7763 67.9601C44.1347 66.7227 45.6971 65.732 47.3941 65.0265C49.3297 64.2247 51.4038 63.8122 53.4972 63.8122L53.5271 63.8122L47.6303 57.9049Z" fill="white"/>
<path fill-rule="evenodd" clip-rule="evenodd" d="M60.614 75.061C60.614 78.8929 57.5124 82 53.6873 82C49.8623 82 46.7607 78.8929 46.7607 75.061C46.7607 71.2292 49.8623 68.1221 53.6873 68.1221C57.5124 68.1221 60.614 71.2292 60.614 75.061ZM54.1286 81.2134C53.9829 81.2238 53.8357 81.229 53.6873 81.229C53.0696 81.229 52.4731 81.138 51.9106 80.9686C52.7133 80.88 53.4481 80.3716 53.7866 79.5698L57.0976 71.727C57.3877 71.0398 57.2499 70.2756 56.8002 69.7376C57.4207 70.1024 57.9716 70.5729 58.4284 71.1245L54.1286 81.2134ZM55.0205 81.0842C55.4864 80.9812 55.9324 80.8255 56.352 80.6235L56.2668 80.5871L59.4961 73.01C59.3539 72.6056 59.1709 72.2205 58.9519 71.8598L55.0205 81.0842ZM59.7946 74.273L57.343 80.0255C58.8606 78.9024 59.8444 77.0973 59.8444 75.061C59.8444 74.794 59.8275 74.531 59.7946 74.273Z" fill="white"/>
</svg>